<?xml version="1.0" standalone="no"?>
<!DOCTYPE svg PUBLIC "-//W3C//DTD SVG 20010904//EN"
 "http://www.w3.org/TR/2001/REC-SVG-20010904/DTD/svg10.dtd">
<svg version="1.0" xmlns="http://www.w3.org/2000/svg"
 width="1266.000000pt" height="1061.000000pt" viewBox="0 0 1266.000000 1061.000000"
 preserveAspectRatio="xMidYMid meet">

<g transform="translate(0.000000,1061.000000) scale(0.100000,-0.100000)"
fill="#000000" stroke="none">
<path d="M5725 10054 c-401 -26 -850 -128 -1240 -281 -861 -337 -1576 -939
-2064 -1738 -361 -588 -584 -1324 -603 -1985 l-3 -105 626 -3 627 -2 6 52 c3
29 8 91 12 138 9 124 44 330 84 490 41 167 162 469 260 650 175 322 477 679
760 899 296 230 636 408 965 505 136 40 156 45 210 57 472 101 912 91 1405
-31 59 -14 303 -97 360 -122 392 -172 690 -376 970 -664 243 -250 385 -451
539 -762 119 -240 184 -435 251 -752 16 -75 40 -268 40 -319 0 -26 3 -69 6
-95 l7 -46 628 0 629 0 0 53 c-1 74 -37 435 -54 537 -27 157 -34 194 -61 305
-41 172 -138 483 -175 560 -5 11 -24 56 -41 100 -124 305 -360 701 -594 993
-121 150 -358 399 -506 528 -488 429 -1084 748 -1684 903 -381 99 -620 131
-1015 135 -157 2 -312 2 -345 0z m581 -404 c60 -20 124 -64 124 -82 0 -16 -41
-58 -56 -58 -6 0 -18 7 -25 17 -47 56 -194 71 -279 28 -160 -81 -173 -320 -23
-415 69 -44 136 -56 201 -37 29 9 66 25 81 37 16 11 33 20 37 20 13 0 54 -43
54 -56 0 -20 -92 -73 -150 -85 -142 -30 -294 25 -370 136 -99 144 -62 354 81
455 82 59 222 77 325 40z m-733 -64 c107 -52 187 -178 187 -295 0 -89 -56
-204 -123 -255 -79 -59 -115 -70 -227 -71 -87 0 -113 4 -151 21 -148 69 -227
262 -170 415 28 74 88 141 157 175 76 37 107 44 195 40 59 -2 90 -9 132 -30z
m1130 15 c9 -9 -91 -612 -104 -625 -5 -6 -23 -6 -46 0 -32 8 -38 13 -37 34 1
28 92 577 99 598 5 13 71 8 88 -7z m315 -58 c11 -10 41 -74 67 -143 131 -342
154 -402 159 -407 3 -3 8 0 10 8 3 8 35 105 71 217 41 124 71 202 79 202 28 0
76 -23 76 -36 0 -7 -4 -23 -10 -36 -5 -13 -48 -143 -96 -291 -47 -147 -89
-269 -93 -271 -3 -2 -21 3 -40 13 -33 15 -38 27 -135 283 -56 147 -105 268
-111 268 -5 0 -41 -95 -78 -210 -42 -131 -73 -210 -81 -210 -28 0 -76 23 -76
36 0 7 4 23 10 36 5 13 48 143 96 291 79 246 88 267 109 267 13 0 32 -8 43
-17z m-2136 -114 c13 -6 24 -13 26 -14 2 -1 -5 -19 -15 -39 -14 -30 -21 -36
-38 -31 -123 39 -253 -15 -309 -127 -104 -209 116 -423 330 -322 49 23 103 77
116 116 6 16 78 -10 78 -28 0 -49 -81 -132 -169 -172 -42 -20 -76 -27 -138
-30 -72 -4 -89 -1 -140 23 -76 34 -135 93 -169 169 -57 124 -30 270 66 366 40
40 135 92 190 103 38 8 147 -1 172 -14z m3057 -270 l33 -20 -6 -87 c-20 -253
-55 -604 -61 -611 -3 -2 -22 5 -43 17 -40 23 -41 24 -29 132 l7 65 -141 80
c-78 44 -145 81 -149 83 -3 1 -37 -21 -75 -49 l-69 -52 -35 20 c-20 12 -36 26
-36 31 0 12 544 412 560 412 5 0 25 -9 44 -21z"/>
<path d="M5304 9507 c-110 -53 -159 -171 -123 -300 13 -49 73 -115 124 -138
56 -26 156 -25 215 2 96 43 135 107 135 220 -1 67 -4 82 -31 125 -16 27 -50
62 -74 79 -38 26 -56 30 -120 33 -63 2 -83 -1 -126 -21z"/>
<path d="M7741 8969 c-67 -51 -118 -95 -114 -100 15 -14 202 -119 212 -119 6
0 11 3 11 8 0 4 7 70 15 147 18 166 17 155 7 155 -5 0 -63 -41 -131 -91z"/>
<path d="M5730 8634 c-149 -14 -218 -26 -365 -60 -121 -29 -349 -103 -435
-141 -164 -74 -206 -95 -301 -150 -380 -220 -712 -532 -951 -898 -86 -131
-199 -345 -248 -470 -17 -44 -34 -89 -39 -100 -25 -56 -76 -234 -109 -380 -24
-102 -49 -300 -53 -425 l-3 -65 776 -5 776 -5 54 -51 c29 -28 64 -56 76 -63
12 -6 22 -16 22 -21 0 -7 -886 -10 -2460 -10 l-2460 0 0 -955 0 -955 5568 -2
c3062 -2 5905 -2 6319 0 l751 2 4 948 c2 521 2 948 1 950 0 2 -1261 6 -2802 9
-1541 4 -2801 9 -2801 12 0 3 25 23 55 45 29 21 66 51 81 67 l28 29 787 0 786
0 -3 73 c-49 934 -568 1781 -1387 2261 -117 69 -289 150 -412 195 -49 18 -99
37 -110 41 -28 12 -198 59 -254 71 -312 65 -599 82 -891 53z m351 -1487 l25
-82 92 -3 c51 -1 92 -7 92 -11 0 -5 -31 -32 -70 -61 -38 -29 -70 -53 -70 -54
0 -1 11 -37 26 -80 14 -43 24 -84 22 -92 -2 -10 -27 3 -80 42 l-77 55 -73 -55
c-40 -30 -76 -52 -80 -48 -4 4 4 41 18 82 13 41 24 81 24 90 0 8 -32 37 -70
65 -39 27 -70 53 -70 57 0 4 40 8 89 8 59 0 92 4 98 13 5 6 18 39 28 72 21 72
34 99 43 90 4 -3 19 -43 33 -88z m-947 -1579 c59 -17 108 -50 149 -100 58 -71
69 -120 75 -319 l4 -176 39 -24 c21 -13 41 -30 44 -38 7 -17 -20 -48 -57 -67
l-28 -15 0 -127 c0 -189 -12 -256 -58 -321 -42 -61 -114 -115 -175 -132 -23
-6 -80 -9 -127 -7 -77 4 -90 7 -140 40 -66 42 -91 68 -122 128 -21 41 -23 61
-28 230 l-5 184 -42 29 c-25 16 -43 36 -43 47 0 11 18 31 43 47 l42 29 5 189
c5 177 7 193 30 239 30 58 124 148 171 163 47 15 173 16 223 1z m6249 -4 c53
-18 140 -91 164 -137 31 -61 36 -95 42 -272 l6 -179 43 -29 c24 -16 42 -36 42
-47 0 -11 -18 -31 -42 -47 l-43 -29 -6 -174 c-4 -96 -10 -186 -14 -200 -23
-72 -95 -147 -179 -186 -73 -34 -199 -34 -273 0 -63 30 -120 86 -153 151 -23
47 -25 63 -28 233 l-4 183 -27 13 c-38 20 -62 51 -55 70 3 9 23 26 44 37 l38
22 4 186 c3 158 6 192 23 226 41 85 112 156 183 181 52 18 179 17 235 -2z
m-10623 -24 c11 -11 22 -30 24 -42 5 -23 23 -132 51 -295 40 -243 31 -218 86
-252 60 -37 64 -63 14 -92 -38 -23 -39 -28 -26 -109 6 -30 24 -135 40 -234 34
-198 37 -238 18 -255 -20 -16 -147 -25 -180 -12 -34 13 -45 42 -58 145 -16
130 -40 156 -134 142 -53 -8 -60 -19 -75 -112 -19 -130 -30 -164 -54 -170 -11
-2 -61 -4 -111 -2 l-90 3 1 50 c0 28 8 93 17 145 10 52 28 158 42 235 l24 140
-22 18 c-12 10 -30 25 -39 32 -29 24 -21 43 32 76 54 33 59 44 79 174 6 39 24
144 39 234 36 207 30 201 188 201 100 0 116 -2 134 -20z m1341 0 c22 -12 67
-48 99 -81 50 -51 61 -68 71 -117 17 -74 16 -217 -1 -237 -9 -11 -34 -15 -99
-15 -47 0 -91 4 -97 8 -6 4 -13 42 -16 85 -6 86 -23 121 -73 146 -24 12 -32
11 -62 -3 -61 -29 -63 -45 -63 -420 0 -213 4 -345 11 -363 16 -43 49 -73 81
-73 70 0 108 65 108 185 0 63 3 76 19 85 32 17 153 13 180 -6 23 -16 23 -19
19 -148 -5 -152 -15 -182 -82 -254 -70 -75 -123 -97 -231 -97 -110 1 -162 21
-234 93 -83 83 -85 90 -89 310 l-4 193 -39 25 c-51 32 -50 56 1 92 45 31 44
25 45 262 0 126 2 138 27 185 31 58 87 114 143 143 58 30 228 31 286 2z m649
1 c6 -12 10 -124 10 -294 l0 -273 40 -23 c54 -30 54 -60 0 -98 l-41 -28 -4
-273 c-3 -190 -7 -278 -16 -288 -15 -18 -179 -20 -197 -2 -9 9 -12 87 -12 290
l0 277 -40 23 c-22 13 -43 31 -46 41 -7 22 17 51 57 67 l29 12 0 284 c0 259 1
284 18 293 9 6 56 11 104 11 76 0 89 -2 98 -19z m930 -1 c16 -16 20 -33 20
-88 0 -105 -2 -106 -167 -110 -167 -3 -176 -5 -191 -37 -13 -28 -16 -181 -6
-234 9 -43 30 -52 145 -60 53 -3 101 -10 106 -14 14 -14 10 -172 -5 -190 -10
-11 -38 -16 -112 -19 -132 -4 -132 -5 -137 -145 -6 -163 -13 -157 182 -165
136 -5 161 -9 172 -24 16 -21 17 -114 2 -166 l-10 -38 -273 0 c-232 0 -275 2
-286 15 -9 11 -13 88 -15 288 l-3 272 -42 29 c-51 35 -50 60 3 96 l37 25 5
274 c4 238 7 276 21 292 16 18 37 19 276 19 245 0 259 -1 278 -20z m468 8 c9
-9 12 -87 12 -289 l0 -278 43 -28 c54 -37 54 -59 -1 -96 l-43 -29 3 -164 c2
-133 6 -167 18 -174 8 -5 70 -10 137 -10 67 0 133 -4 148 -10 26 -10 26 -10
23 -112 l-3 -103 -259 -3 c-230 -2 -261 0 -278 14 -17 16 -18 37 -18 291 l0
274 -35 20 c-64 38 -65 66 -4 101 l39 22 0 271 c0 332 -7 315 119 315 54 0 91
-4 99 -12z m2342 -6 c24 -19 27 -34 80 -352 18 -107 38 -201 43 -208 6 -8 27
-22 48 -32 56 -29 58 -49 8 -91 -31 -26 -41 -41 -35 -54 3 -10 13 -59 21 -109
7 -50 23 -147 35 -216 11 -69 20 -147 18 -175 l-3 -50 -58 -9 c-77 -11 -144
-1 -158 26 -6 11 -17 63 -25 116 -16 106 -31 138 -70 148 -34 9 -94 -2 -112
-20 -8 -8 -18 -34 -22 -58 -4 -24 -13 -74 -19 -113 -7 -38 -17 -75 -23 -82 -8
-10 -38 -13 -112 -11 l-101 3 -3 49 c-2 26 4 85 12 130 17 84 25 134 52 300
15 94 14 100 -2 109 -10 6 -29 22 -43 35 l-25 25 32 26 c17 14 43 35 57 46 27
21 42 89 90 395 20 129 33 170 58 180 12 5 70 9 128 9 88 1 111 -2 129 -17z
m954 1 c194 -70 268 -353 144 -554 l-30 -49 41 -61 c54 -81 61 -111 61 -264 0
-116 -3 -135 -24 -182 -36 -77 -98 -138 -162 -163 -49 -18 -78 -20 -264 -20
-197 0 -210 1 -220 19 -6 12 -10 123 -10 290 l0 270 -42 28 c-26 17 -43 37
-43 48 0 11 17 31 43 48 l42 28 0 278 c0 202 3 280 12 289 9 9 69 12 208 12
161 0 204 -3 244 -17z m644 5 c9 -9 12 -88 12 -293 l0 -280 36 -20 c38 -20 59
-49 49 -66 -4 -5 -24 -21 -46 -35 l-39 -24 0 -272 c0 -328 8 -308 -121 -308
-77 0 -90 2 -99 19 -6 12 -10 123 -10 290 l0 271 -39 24 c-22 14 -42 29 -45
35 -11 17 6 41 45 63 l39 22 0 277 c0 239 2 280 16 293 19 20 183 23 202 4z
m930 -4 c19 -13 22 -24 22 -92 0 -42 -5 -84 -10 -92 -7 -12 -41 -16 -163 -20
-110 -4 -159 -9 -171 -19 -13 -11 -16 -35 -16 -141 0 -161 0 -161 137 -167 73
-4 101 -9 111 -21 14 -19 16 -160 2 -182 -7 -11 -36 -16 -114 -20 -136 -7
-135 -6 -136 -161 0 -77 4 -120 13 -131 10 -13 41 -17 164 -20 103 -3 157 -9
168 -18 11 -9 15 -33 15 -92 0 -128 23 -118 -290 -118 -231 0 -271 2 -284 16
-14 13 -16 54 -16 289 l0 274 -40 22 c-63 36 -63 65 1 101 l39 22 0 277 c0
276 0 278 22 293 19 14 62 16 273 16 211 0 254 -2 273 -16z m710 -10 c74 -27
120 -68 149 -130 23 -52 24 -59 21 -262 l-3 -209 -37 -60 c-40 -65 -46 -101
-27 -163 5 -19 32 -122 59 -228 38 -147 47 -199 39 -213 -9 -17 -22 -19 -114
-19 -91 0 -106 2 -114 18 -5 10 -29 97 -51 193 -62 258 -60 253 -100 257 -57
6 -60 -6 -60 -238 0 -147 -3 -209 -12 -218 -8 -8 -46 -12 -103 -12 -57 0 -95
4 -103 12 -9 9 -12 87 -12 290 l0 278 -39 19 c-41 21 -54 41 -44 66 3 9 23 25
44 36 l39 19 0 277 c0 248 2 278 17 296 17 18 30 18 208 15 156 -4 200 -8 243
-24z m990 10 c20 -14 22 -24 22 -99 0 -102 -11 -115 -104 -115 -95 0 -96 -3
-96 -194 l0 -161 45 -27 c59 -36 59 -60 0 -96 l-44 -27 -1 -268 c0 -165 -4
-276 -10 -288 -10 -17 -22 -19 -109 -19 -81 0 -100 3 -105 16 -3 9 -6 136 -6
284 l0 268 -50 31 c-68 42 -65 64 13 110 l37 23 0 152 c0 192 -2 196 -101 196
-96 0 -109 14 -109 115 0 120 -15 115 318 115 235 0 281 -2 300 -16z m-7884
-90 c14 -13 16 -51 16 -255 0 -255 0 -257 -48 -223 -22 15 -22 19 -22 248 0
128 3 236 7 239 11 12 31 8 47 -9z m1407 -1 c11 -12 15 -71 17 -255 4 -255 3
-257 -46 -222 -22 15 -22 18 -22 255 0 227 1 239 19 239 10 0 25 -7 32 -17z
m3937 5 c16 -16 17 -498 2 -498 -6 0 -22 7 -35 16 l-25 16 0 232 c0 128 3 236
7 239 10 11 38 8 51 -5z m2655 -52 c8 -57 -7 -116 -35 -138 -14 -11 -41 -18
-70 -18 -26 0 -58 -4 -72 -10 l-26 -10 0 -135 c0 -144 -3 -151 -48 -119 -21
14 -22 22 -22 152 0 176 3 182 100 182 86 0 100 12 100 84 0 61 12 79 45 64
16 -7 24 -21 28 -52z m-9958 30 c15 -23 70 -303 82 -420 l6 -59 -32 19 c-17
10 -34 29 -36 41 -3 13 -7 34 -10 47 -10 49 -65 374 -65 385 0 20 39 11 55
-13z m2896 3 c6 -13 9 -49 7 -87 -6 -97 -15 -102 -194 -102 -83 0 -145 -4
-149 -10 -3 -5 -7 -51 -9 -102 -2 -96 -8 -108 -46 -88 -19 10 -20 18 -18 133
l3 122 130 6 c72 4 144 7 162 8 47 2 63 23 63 87 0 47 3 54 20 54 10 0 24 -10
31 -21z m2842 -6 c14 -27 18 -48 37 -163 4 -30 18 -108 29 -173 12 -65 19
-122 16 -127 -4 -6 -18 -2 -33 7 -15 9 -28 18 -30 18 -1 1 -11 55 -22 121 -39
228 -51 299 -56 322 -7 35 41 31 59 -5z m2505 -6 c21 -43 6 -132 -26 -157 -22
-18 -40 -20 -161 -20 -93 0 -141 -4 -149 -12 -8 -8 -12 -46 -12 -105 0 -85 -2
-93 -19 -93 -42 0 -51 25 -51 135 0 57 3 110 6 119 5 13 24 16 103 17 123 0
228 12 243 27 6 6 13 36 16 67 4 45 8 55 21 53 9 -2 22 -16 29 -31z m851 -116
c19 -44 21 -69 21 -214 0 -174 -8 -218 -51 -279 -26 -36 -30 -14 61 -365 37
-146 60 -252 56 -267 -5 -22 -12 -24 -95 -30 -124 -10 -181 7 -181 55 0 5 29
9 64 9 36 0 77 5 92 10 26 10 27 12 21 68 -6 56 -14 88 -78 327 -17 66 -34
130 -36 141 -3 13 11 51 36 96 l41 75 0 211 c0 173 3 212 14 212 7 0 23 -22
35 -49z m-7625 -22 c10 -30 21 -95 23 -146 5 -88 5 -92 -20 -117 -23 -23 -34
-26 -100 -26 -75 0 -97 9 -97 41 0 13 12 17 61 21 50 4 66 9 82 29 18 22 19
35 15 142 -6 132 4 148 36 56z m3069 29 c29 -62 37 -114 37 -235 0 -128 -4
-140 -42 -110 -14 10 -17 40 -21 172 -3 88 -8 170 -12 183 -12 36 20 27 38
-10z m6245 -32 c18 -45 24 -84 29 -192 6 -143 6 -144 -42 -122 l-25 11 0 137
c0 76 -3 159 -7 185 -9 67 15 57 45 -19z m-9673 13 c4 -5 -1 -19 -12 -31 -17
-19 -18 -47 -21 -394 -3 -309 -6 -374 -17 -374 -8 0 -21 10 -29 22 -14 19 -16
73 -16 384 l0 363 26 20 c29 23 59 27 69 10z m8283 -1 c20 -20 15 -58 -9 -58
-34 0 -59 19 -59 45 0 21 5 25 28 25 15 0 33 -5 40 -12z m-2573 -55 c16 -43
17 -150 2 -210 -19 -71 -55 -134 -76 -131 -29 6 -37 36 -18 65 45 69 61 119
65 206 4 84 13 106 27 70z m-4027 -335 c7 -7 12 -44 12 -94 0 -77 -2 -84 -26
-103 -23 -18 -41 -21 -124 -21 l-97 0 -7 -46 c-3 -26 -6 -69 -6 -95 0 -41 -3
-49 -18 -49 -35 0 -42 21 -42 126 0 133 1 134 126 134 120 0 134 11 134 100 0
51 3 60 18 60 10 0 23 -5 30 -12z m5342 -2 c13 -17 18 -139 7 -173 -11 -31
-30 -37 -142 -43 l-100 -5 -5 -90 c-4 -76 -8 -90 -23 -93 -38 -7 -47 15 -47
117 0 137 4 141 130 141 121 0 130 6 130 89 0 32 3 61 7 64 11 11 30 8 43 -7z
m-7962 -56 c42 -26 42 -54 -3 -82 -19 -13 -35 -30 -35 -38 0 -16 2 -27 50
-305 17 -99 31 -193 32 -209 2 -46 -23 -56 -132 -56 -99 0 -120 7 -120 42 0
15 9 18 63 18 77 0 107 17 107 63 0 18 -11 97 -25 177 -13 80 -32 194 -42 253
l-17 108 30 24 c36 30 50 30 92 5z m1853 3 c15 -9 31 -23 34 -31 7 -18 -20
-49 -57 -68 l-28 -15 0 -267 c0 -329 7 -312 -120 -312 -78 0 -91 2 -100 19
-18 34 -12 39 54 43 102 6 96 -12 96 313 l0 282 38 25 c46 32 47 32 83 11z
m1413 -4 c37 -29 33 -54 -14 -84 l-39 -25 -3 -117 c-3 -116 -3 -118 -27 -121
-13 -2 -28 2 -32 10 -5 7 -9 79 -9 160 l0 148 38 24 c46 31 53 31 86 5z m1187
4 c30 -18 45 -45 34 -63 -4 -6 -24 -22 -45 -35 l-38 -24 -4 -143 c-5 -180 -23
-234 -107 -319 -73 -73 -142 -101 -256 -101 -81 0 -135 13 -135 32 0 6 25 10
58 10 104 0 192 33 263 97 87 79 119 183 119 387 l0 123 38 25 c46 32 39 31
73 11z m1289 -11 c37 -32 33 -52 -17 -83 -27 -17 -33 -26 -29 -43 3 -11 13
-64 21 -116 8 -52 22 -135 31 -185 32 -183 34 -208 18 -232 -13 -21 -22 -23
-117 -23 -106 0 -127 7 -127 42 0 15 9 18 59 18 69 0 106 11 115 35 3 10 -14
141 -40 293 -36 222 -43 277 -32 283 7 4 22 15 33 23 29 22 51 19 85 -12z
m1458 8 c19 -12 32 -28 32 -40 0 -12 -13 -28 -32 -40 -61 -35 -58 -20 -58
-307 0 -322 7 -303 -120 -303 -82 0 -87 1 -98 24 -14 31 -8 36 43 36 23 0 56
5 73 11 l32 11 2 286 3 286 40 28 c22 15 42 27 45 28 3 0 20 -9 38 -20z m2472
-30 c12 -23 -8 -48 -59 -75 l-31 -16 0 -250 c0 -307 -2 -313 -84 -324 -76 -9
-133 1 -141 26 -10 30 0 36 65 41 92 7 89 -3 90 315 l0 273 39 20 c22 11 42
24 46 30 8 14 61 -14 75 -40z m1024 27 c37 -30 31 -65 -17 -90 l-34 -19 -6
-136 c-10 -244 -80 -363 -247 -417 -85 -28 -250 -19 -250 13 0 5 35 11 78 14
107 6 186 43 256 119 77 83 88 120 93 321 l5 167 42 25 c22 14 43 25 46 26 3
0 18 -11 34 -23z m-4029 -120 c8 -19 17 -90 21 -159 7 -121 6 -127 -19 -182
-32 -70 -116 -160 -182 -194 -48 -25 -57 -26 -259 -30 -193 -4 -211 -3 -223
14 -29 40 -21 42 190 45 198 4 203 5 259 32 67 33 120 89 157 167 24 51 26 64
26 198 0 78 4 142 8 142 4 0 14 -15 22 -33z m1859 -72 c13 -46 7 -478 -7 -492
-5 -4 -49 -8 -99 -8 -77 0 -92 3 -104 20 -23 30 -12 40 53 45 96 8 93 2 93
231 0 109 5 210 10 224 14 38 40 28 54 -20z m-7223 -5 c40 -22 16 -238 -36
-319 -60 -93 -164 -153 -280 -159 -74 -4 -143 8 -135 24 3 5 26 8 51 6 48 -4
124 14 178 42 113 59 181 184 181 337 0 80 5 88 41 69z m-1673 -152 c7 -7 12
-22 12 -35 0 -18 -6 -23 -25 -23 -36 0 -54 -35 -66 -131 -5 -46 -18 -97 -28
-114 -17 -30 -18 -30 -113 -33 -89 -2 -97 -1 -103 18 -10 31 0 37 65 42 86 6
96 19 119 155 10 61 22 116 25 122 10 15 99 14 114 -1z m5737 -4 c23 -23 15
-48 -18 -52 -35 -4 -42 -19 -63 -136 -11 -59 -25 -108 -37 -122 -18 -23 -24
-25 -111 -22 -90 3 -91 3 -94 29 -3 26 -2 27 63 31 39 2 71 10 80 19 15 14 28
70 45 182 5 32 14 65 21 73 16 20 93 18 114 -2z m-2637 -212 c-5 -67 -8 -78
-32 -99 -27 -23 -30 -23 -275 -23 -255 0 -271 2 -271 41 0 16 20 18 246 21
282 3 274 1 274 94 0 56 11 69 44 52 16 -9 18 -19 14 -86z m793 88 c16 -9 19
-22 19 -89 0 -68 -3 -80 -23 -99 -23 -22 -28 -22 -278 -20 l-254 3 -3 28 -3
27 223 0 c264 0 261 -1 273 99 7 63 12 68 46 51z m4555 -22 c12 -39 -7 -140
-32 -165 -23 -23 -24 -23 -278 -23 -249 0 -256 0 -267 21 -6 12 -7 25 -2 30 4
4 115 9 245 11 270 3 264 2 271 84 2 28 7 55 10 61 10 17 45 4 53 -19z"/>
<path d="M4978 5334 c-46 -24 -49 -62 -46 -444 3 -336 4 -350 24 -377 17 -22
30 -29 65 -31 37 -2 49 1 69 23 l25 27 3 341 c2 188 0 361 -3 384 -11 77 -73
112 -137 77z m75 -20 c3 -4 0 -16 -9 -28 -12 -18 -14 -80 -14 -401 1 -323 -1
-380 -13 -383 -8 -2 -24 9 -36 24 -21 26 -21 35 -21 395 0 321 2 370 16 383
15 16 65 22 77 10z"/>
<path d="M11199 5320 l-30 -29 3 -380 3 -379 24 -26 c46 -49 130 -28 146 36 3
13 5 189 3 391 l-3 369 -28 24 c-39 33 -81 31 -118 -6z m91 -9 c0 -5 -7 -22
-15 -37 -13 -25 -15 -86 -14 -399 0 -246 -3 -371 -9 -373 -6 -2 -20 6 -31 17
-20 20 -21 31 -21 399 0 281 3 381 12 390 14 14 78 16 78 3z"/>
<path d="M605 4960 c-10 -17 -29 -166 -22 -183 7 -19 66 -24 83 -7 11 11 3 88
-17 163 -9 35 -31 49 -44 27z m31 -169 c-22 -22 -34 -4 -29 42 8 70 15 75 29
22 11 -42 11 -52 0 -64z"/>
<path d="M6331 4928 c-6 -24 -12 -70 -14 -103 l-2 -60 45 0 45 0 -3 50 c-7
132 -48 198 -71 113z m43 -78 c7 -55 3 -70 -20 -70 -10 0 -14 12 -14 44 0 86
24 104 34 26z"/>
<path d="M7234 5295 c-8 -19 -14 -66 -14 -107 0 -119 43 -164 120 -125 72 36
82 207 15 251 -14 9 -43 16 -65 16 -37 0 -42 -3 -56 -35z m102 1 c19 -14 19
-15 -3 -38 -20 -21 -23 -35 -23 -101 0 -42 -4 -78 -9 -81 -5 -3 -20 3 -32 13
-22 18 -24 27 -23 104 0 55 5 91 13 101 17 20 51 21 77 2z"/>
<path d="M7249 4801 c-23 -18 -24 -27 -28 -145 -4 -150 6 -176 65 -176 78 0
124 56 132 160 9 129 -91 224 -169 161z m95 -21 c6 -6 2 -18 -10 -31 -15 -17
-19 -40 -22 -127 -2 -59 -8 -111 -12 -115 -4 -5 -17 -6 -29 -2 -20 6 -21 13
-21 132 0 105 3 130 17 145 17 19 56 18 77 -2z"/>
<path d="M9506 5314 c-13 -13 -16 -43 -16 -173 0 -147 1 -159 21 -177 14 -12
34 -18 62 -18 33 1 47 8 74 38 l33 36 0 119 c0 104 -2 121 -20 144 -33 42
-125 61 -154 31z m95 -34 c-15 -60 -20 -109 -21 -202 0 -107 0 -108 -24 -108
-18 0 -27 8 -35 31 -12 35 -15 281 -4 293 4 4 25 6 48 4 30 -2 39 -7 36 -18z"/>
<path d="M2410 3720 c0 -12 82 -145 148 -240 274 -395 632 -757 1027 -1037
356 -253 810 -479 1170 -583 22 -6 63 -18 90 -26 651 -191 1367 -216 2047 -70
125 27 149 33 303 78 744 220 1401 638 1938 1233 176 195 467 597 467 644 0 8
-214 11 -789 11 l-789 0 -109 -92 c-515 -440 -1123 -678 -1793 -704 -300 -11
-572 18 -855 91 -33 9 -76 20 -96 25 -38 10 -170 55 -204 70 -11 5 -60 25
-110 46 -257 108 -516 268 -757 471 l-111 93 -788 0 c-525 0 -789 -3 -789 -10z
m2399 -873 c80 -34 146 -67 148 -73 2 -5 -3 -19 -11 -29 -14 -19 -15 -19 -73
4 -32 13 -82 34 -111 47 -29 13 -57 24 -62 24 -5 0 -18 -20 -29 -44 -38 -87
-43 -79 74 -126 58 -24 105 -49 105 -55 0 -6 -6 -19 -13 -29 -13 -18 -19 -16
-110 24 -53 23 -103 40 -110 37 -17 -6 -60 -118 -50 -128 4 -4 46 -23 93 -42
126 -51 140 -59 140 -76 -1 -48 -13 -46 -170 19 -84 35 -154 69 -156 75 -3 6
32 99 77 206 90 216 97 229 107 228 4 0 72 -28 151 -62z m2771 -67 c0 -29 -2
-30 -42 -30 -64 0 -118 -18 -150 -50 -33 -34 -36 -62 -7 -91 20 -20 28 -20
133 -14 93 6 118 4 143 -8 41 -21 67 -78 58 -125 -14 -75 -136 -152 -241 -152
-59 0 -84 14 -84 47 0 24 2 25 42 19 58 -9 140 11 183 46 39 33 43 52 18 87
-16 23 -18 24 -124 17 -127 -7 -167 4 -199 56 -65 106 47 226 213 228 57 0 57
0 57 -30z m-2533 -32 c6 -5 14 -32 18 -61 7 -60 34 -257 41 -304 3 -18 8 -33
12 -33 4 0 64 68 132 150 114 138 128 151 154 148 16 -2 31 -8 33 -14 2 -6
-67 -96 -153 -200 -216 -262 -221 -261 -259 16 -14 102 -30 211 -35 244 -5 32
-7 62 -5 66 6 9 44 1 62 -12z m2094 -103 c43 -22 96 -72 115 -108 24 -45 34
-117 23 -169 -21 -95 -97 -164 -210 -188 -106 -23 -220 33 -268 134 -30 61
-29 157 3 216 62 116 225 171 337 115z m-1481 -41 c156 -23 150 -21 150 -50 0
-13 -6 -27 -14 -30 -8 -3 -56 2 -107 10 -158 26 -142 30 -157 -43 -7 -35 -10
-66 -8 -68 2 -3 53 -12 113 -22 99 -16 108 -19 111 -40 2 -13 0 -27 -5 -31 -7
-7 -140 9 -209 25 -19 4 -23 -2 -33 -52 -17 -85 -15 -91 22 -97 226 -35 237
-38 237 -63 0 -33 -21 -38 -98 -24 -37 6 -107 18 -155 25 -49 8 -91 17 -94 19
-5 5 39 316 58 415 l11 53 36 -5 c21 -3 84 -13 142 -22z m1070 -15 c20 -36 6
-47 -74 -54 -46 -5 -76 -12 -76 -19 0 -6 7 -81 16 -166 8 -85 16 -173 17 -195
2 -39 1 -40 -33 -40 -23 0 -35 5 -37 15 -1 8 -10 98 -19 199 -13 131 -22 185
-32 188 -7 3 -39 1 -71 -4 -72 -11 -81 -8 -81 27 0 32 -2 31 224 50 66 6 122
13 125 15 11 11 31 4 41 -16z m-778 -32 c7 -8 67 -84 133 -170 65 -86 123
-157 127 -157 4 0 8 64 8 143 0 178 2 187 46 187 l33 0 -5 -227 c-3 -126 -7
-234 -10 -240 -2 -7 -15 -13 -28 -13 -20 0 -49 31 -156 171 -73 93 -135 168
-137 165 -3 -3 -9 -77 -12 -163 l-6 -158 -34 0 -34 0 2 155 c1 85 4 192 8 238
5 77 7 82 29 82 12 0 29 -6 36 -13z"/>
<path d="M6955 2581 c-22 -10 -50 -29 -62 -42 -90 -98 -29 -273 103 -294 114
-19 214 63 214 175 0 134 -132 218 -255 161z"/>
<path d="M4240 3722 c0 -12 197 -158 295 -219 314 -195 685 -334 1040 -389
222 -34 599 -41 770 -14 167 26 259 44 345 67 52 14 106 28 120 31 14 2 30 8
35 12 6 4 26 11 45 15 19 4 41 11 50 16 8 4 67 29 130 54 135 55 278 128 410
210 111 69 290 202 290 216 0 5 -677 9 -1765 9 -971 0 -1765 -4 -1765 -8z"/>
</g>
</svg>
